<svg width="512" height="512" xmlns:xlink="http://www.w3.org/1999/xlink" xmlns="http://www.w3.org/2000/svg"><defs><clipPath id="b"><use xlink:href="#a" clip-rule="evenodd" fill-rule="evenodd"/></clipPath><path d="M512 0v512H0V0h512Z" id="a"/></defs><path d="M512 0v512H0V0h512Z" fill="none"/><path d="m149.3 371.7-36.3-214a10 10 0 0 1 9.8-11.7h67.5a10 10 0 0 1 9 5.5L206 165h-75a5 5 0 0 0-5 5v35a5 5 0 0 0 5 5h97.4l6 12H157a5 5 0 0 0-5 5v25a5 5 0 0 0 5 5h94.8l6.4 13H157a5 5 0 0 0-5 5v25a5 5 0 0 0 5 5h118.7l12 24.2a10 10 0 0 0 6 5.1l86.6 26.1a10.4 10.4 0 0 1 4.1 2.5 9.3 9.3 0 0 1 2 3 9.2 9.2 0 0 1 1 3.3 8.2 8.2 0 0 1 0 1.8 9.5 9.5 0 0 1-1.5 4.2 7.4 7.4 0 0 1-.8 1 9.2 9.2 0 0 1-2.6 2.4 8.7 8.7 0 0 1-2 1 9.6 9.6 0 0 1-3.1.4H159.2a10.7 10.7 0 0 1-3.8-.8 9.6 9.6 0 0 1-3.9-2.8 10.3 10.3 0 0 1-2.2-4.7ZM275.7 305H397a5 5 0 0 0 5-5v-25a5 5 0 0 0-5-5H258.2l17.5 35Zm-24-48H397a5 5 0 0 0 5-5v-25a5 5 0 0 0-5-5H234.4l17.4 35Zm-23.3-47H398a5 5 0 0 0 5-5v-35a5 5 0 0 0-5-5H206l22.4 45Z" fill="#FFF" fill-rule="evenodd" clip-path="url(#b)"/></svg>